<svg width="2030" height="1587" viewBox="0 0 2030 1587" fill="none" xmlns="http://www.w3.org/2000/svg">
<path d="M849.48 289.684C815.05 398.659 821.561 466.981 869.01 494.65C940.186 536.154 1109.43 552.755 1180.17 642.788C1250.91 732.819 1466.61 663.218 1503.49 508.697C1540.38 354.175 1606.8 116.007 1256.57 116.007C1023.08 116.007 887.385 173.898 849.482 289.684H849.48Z" fill="#FFFA72"/>
<path d="M60.8057 486.297C-35.5994 791.426 -17.3682 982.728 115.49 1060.2C314.781 1176.41 788.655 1222.9 986.734 1474.99C1184.81 1727.07 1788.76 1532.19 1892.05 1099.53C1995.34 666.871 2181.31 0 1200.66 0C546.88 0 166.938 162.096 60.809 486.297H60.8057Z" fill="#151A80"/>
<path d="M210.548 485.245C119.308 774.029 136.562 955.082 262.303 1028.41C450.918 1138.39 899.406 1182.38 1086.87 1420.97C1274.33 1659.55 1845.93 1475.11 1943.69 1065.63C2041.44 656.146 2217.45 25 1289.33 25C670.583 25 310.995 178.412 210.551 485.245H210.548Z" fill="#2A2A84"/>
<path d="M318.291 467.194C232.215 739.631 248.493 910.436 367.116 979.609C545.055 1083.37 968.157 1124.87 1145.01 1349.95C1321.86 1575.03 1861.1 1401.03 1953.33 1014.72C2045.55 628.421 2211.6 33 1336.01 33C752.286 33 413.052 177.728 318.294 467.194H318.291Z" fill="#403A89"/>
<path d="M419.479 451.057C338.568 707.147 353.869 867.704 465.374 932.727C632.637 1030.26 1030.35 1069.27 1196.6 1280.85C1362.84 1492.42 1869.72 1328.86 1956.41 965.736C2043.1 602.61 2199.19 42.9146 1376.14 42.9146C827.434 42.9146 508.554 178.959 419.482 451.057H419.479Z" fill="#554A8E"/>
<path d="M467.257 433.126C391.51 672.871 405.835 823.179 510.223 884.051C666.809 975.36 1039.14 1011.88 1194.77 1209.95C1350.4 1408.02 1824.93 1254.9 1906.09 914.954C1987.24 575.006 2133.37 51.0359 1362.85 51.0359C849.172 51.0359 550.647 178.397 467.26 433.126H467.257Z" fill="#6A5A92"/>
<path d="M515.035 415.196C444.453 638.594 457.8 778.654 555.071 835.376C700.981 920.459 1047.92 954.491 1192.95 1139.06C1337.96 1323.62 1780.14 1180.94 1855.76 864.171C1931.39 547.402 2067.55 59.1572 1349.57 59.1572C870.911 59.1572 592.739 177.834 515.037 415.196H515.035Z" fill="#806A97"/>
<path d="M562.813 397.266C497.395 604.318 509.766 734.13 599.92 786.701C735.153 865.558 1056.71 897.101 1191.12 1068.16C1325.53 1239.22 1735.35 1106.98 1805.44 813.389C1875.53 519.798 2001.73 67.2786 1336.28 67.2786C892.649 67.2786 634.831 177.272 562.815 397.266H562.813Z" fill="#95799C"/>
<path d="M610.591 379.336C550.338 570.041 561.732 689.605 644.768 738.026C769.326 810.658 1065.5 839.71 1189.3 997.267C1313.09 1154.82 1690.56 1033.02 1755.12 762.607C1819.67 492.194 1935.9 75.3999 1323 75.3999C914.387 75.3999 676.923 176.71 610.593 379.336H610.591Z" fill="#AA89A0"/>
<path d="M658.369 361.405C603.28 535.765 613.698 645.08 689.617 689.351C803.498 755.757 1074.28 782.319 1187.47 926.371C1300.65 1070.42 1645.77 959.06 1704.79 711.825C1763.81 464.591 1870.08 83.5215 1309.71 83.5215C936.125 83.5215 719.016 176.148 658.371 361.405H658.369Z" fill="#BF99A5"/>
<path d="M706.147 343.475C656.223 501.489 665.664 600.555 734.465 640.676C837.67 700.856 1083.07 724.928 1185.65 855.475C1288.22 986.02 1600.98 885.099 1654.47 661.043C1707.96 436.987 1804.26 91.6428 1296.43 91.6428C957.864 91.6428 761.108 175.585 706.148 343.475H706.147Z" fill="#D5A9AA"/>
<path d="M753.925 325.545C709.165 467.212 717.63 556.031 779.314 592.001C871.842 645.956 1091.85 667.537 1183.82 784.579C1275.78 901.619 1556.19 811.139 1604.14 610.261C1652.1 409.383 1738.44 99.7642 1283.14 99.7642C979.602 99.7642 803.2 175.023 753.926 325.545H753.925Z" fill="#EAB9AE"/>
<path d="M801.703 307.615C762.108 432.936 769.595 511.506 824.162 543.325C906.014 591.055 1100.64 610.146 1181.99 713.684C1263.35 817.219 1511.4 737.179 1553.82 559.479C1596.24 381.779 1672.62 107.885 1269.86 107.885C1001.34 107.885 845.293 174.461 801.704 307.615H801.703Z" fill="#FFC9B3"/>
</svg>
