<svg width="2038" height="1595" viewBox="0 0 2038 1595" fill="none" xmlns="http://www.w3.org/2000/svg">
<g filter="url(#filter0_d)">
<path d="M1184.11 289.684C1218.54 398.659 1212.03 466.981 1164.58 494.65C1093.4 536.154 924.163 552.755 853.42 642.788C782.68 732.819 566.984 663.218 530.095 508.697C493.205 354.175 426.787 116.007 777.02 116.007C1010.51 116.007 1146.2 173.898 1184.11 289.684H1184.11Z" fill="#FFFA72"/>
</g>
<g filter="url(#filter1_d)">
<path d="M1972.78 486.297C2069.19 791.426 2050.96 982.728 1918.1 1060.2C1718.81 1176.41 1244.93 1222.9 1046.86 1474.99C848.783 1727.07 244.833 1532.19 141.544 1099.53C38.2538 666.871 -147.719 0 832.934 0C1486.71 0 1866.65 162.096 1972.78 486.297H1972.78Z" fill="#151A80"/>
</g>
<g filter="url(#filter2_d)">
<path d="M1823.04 485.245C1914.28 774.029 1897.03 955.082 1771.29 1028.41C1582.67 1138.39 1134.18 1182.38 946.716 1420.97C759.255 1659.55 187.659 1475.11 89.9031 1065.63C-7.85327 656.146 -183.863 25 744.255 25C1363.01 25 1722.59 178.412 1823.04 485.245H1823.04Z" fill="#2A2A84"/>
</g>
<g filter="url(#filter3_d)">
<path d="M1715.3 467.194C1801.37 739.631 1785.1 910.436 1666.47 979.609C1488.53 1083.37 1065.43 1124.87 888.577 1349.95C711.727 1575.03 172.486 1401.03 80.2627 1014.72C-11.9603 628.421 -178.007 33 697.576 33C1281.3 33 1620.54 177.728 1715.3 467.194H1715.3Z" fill="#403A89"/>
</g>
<g filter="url(#filter4_d)">
<path d="M1614.11 451.057C1695.02 707.147 1679.72 867.704 1568.21 932.727C1400.95 1030.26 1003.24 1069.27 836.992 1280.85C670.753 1492.42 163.866 1328.86 77.1766 965.736C-9.51294 602.61 -165.597 42.9146 657.451 42.9146C1206.16 42.9146 1525.03 178.959 1614.11 451.057H1614.11Z" fill="#554A8E"/>
</g>
<g filter="url(#filter5_d)">
<path d="M1566.33 433.127C1642.08 672.871 1627.75 823.18 1523.37 884.052C1366.78 975.36 994.45 1011.88 838.817 1209.95C683.189 1408.02 208.657 1254.9 127.501 914.954C46.3447 575.007 -99.7766 51.0364 670.736 51.0364C1184.42 51.0364 1482.94 178.397 1566.33 433.127H1566.33Z" fill="#6A5A92"/>
</g>
<g filter="url(#filter6_d)">
<path d="M1518.55 415.196C1589.14 638.594 1575.79 778.654 1478.52 835.376C1332.61 920.459 985.664 954.491 840.642 1139.06C695.625 1323.62 253.448 1180.94 177.825 864.171C102.202 547.402 -33.9562 59.1572 684.022 59.1572C1162.68 59.1572 1440.85 177.834 1518.55 415.196H1518.55Z" fill="#806A97"/>
</g>
<g filter="url(#filter7_d)">
<path d="M1470.78 397.266C1536.19 604.318 1523.82 734.13 1433.67 786.702C1298.44 865.559 976.878 897.101 842.468 1068.16C708.062 1239.22 298.238 1106.98 228.149 813.39C158.059 519.799 31.8638 67.2791 697.307 67.2791C1140.94 67.2791 1398.76 177.273 1470.77 397.266H1470.78Z" fill="#95799C"/>
</g>
<g filter="url(#filter8_d)">
<path d="M1423 379.336C1483.25 570.042 1471.86 689.605 1388.82 738.026C1264.26 810.658 968.092 839.71 844.293 997.267C720.498 1154.82 343.029 1033.02 278.473 762.608C213.917 492.195 97.6843 75.4003 710.592 75.4003C1119.2 75.4003 1356.67 176.71 1423 379.336H1423Z" fill="#AA89A0"/>
</g>
<g filter="url(#filter9_d)">
<path d="M1375.22 361.406C1430.31 535.765 1419.89 645.08 1343.97 689.351C1230.09 755.757 959.307 782.319 846.119 926.371C732.935 1070.42 387.82 959.06 328.798 711.825C269.775 464.591 163.505 83.5216 723.878 83.5216C1097.46 83.5216 1314.57 176.148 1375.22 361.406H1375.22Z" fill="#BF99A5"/>
</g>
<g filter="url(#filter10_d)">
<path d="M1327.44 343.476C1377.37 501.489 1367.93 600.556 1299.12 640.676C1195.92 700.857 950.52 724.928 847.944 855.476C745.371 986.02 432.611 885.1 379.122 661.044C325.632 436.987 229.325 91.6433 737.163 91.6433C1075.73 91.6433 1272.48 175.586 1327.44 343.476H1327.44Z" fill="#D5A9AA"/>
</g>
<g filter="url(#filter11_d)">
<path d="M1279.66 325.545C1324.42 467.212 1315.96 556.031 1254.28 592.001C1161.75 645.956 941.734 667.537 849.769 784.579C757.807 901.619 477.402 811.139 429.446 610.261C381.49 409.383 295.146 99.7642 750.449 99.7642C1053.99 99.7642 1230.39 175.023 1279.66 325.545H1279.66Z" fill="#EAB9AE"/>
</g>
<g filter="url(#filter12_d)">
<path d="M1231.89 307.615C1271.48 432.936 1263.99 511.506 1209.43 543.326C1127.58 591.055 932.948 610.147 851.595 713.684C770.244 817.219 522.193 737.179 479.77 559.479C437.347 381.779 360.966 107.886 763.734 107.886C1032.25 107.886 1188.3 174.461 1231.89 307.615H1231.89Z" fill="#FFC9B3"/>
</g>
<defs>
<filter id="filter0_d" x="495.59" y="116.007" width="714.236" height="574.731" filterUnits="userSpaceOnUse" color-interpolation-filters="sRGB">
<feFlood flood-opacity="0" result="BackgroundImageFix"/>
<feColorMatrix in="SourceAlpha" type="matrix" values="0 0 0 0 0 0 0 0 0 0 0 0 0 0 0 0 0 0 127 0" result="hardAlpha"/>
<feOffset dy="4"/>
<feGaussianBlur stdDeviation="2"/>
<feComposite in2="hardAlpha" operator="out"/>
<feColorMatrix type="matrix" values="0 0 0 0 0 0 0 0 0 0 0 0 0 0 0 0 0 0 0.25 0"/>
<feBlend mode="normal" in2="BackgroundImageFix" result="effect1_dropShadow"/>
<feBlend mode="normal" in="SourceGraphic" in2="effect1_dropShadow" result="shape"/>
</filter>
<filter id="filter1_d" x="52.1296" y="0" width="1985.46" height="1594.85" filterUnits="userSpaceOnUse" color-interpolation-filters="sRGB">
<feFlood flood-opacity="0" result="BackgroundImageFix"/>
<feColorMatrix in="SourceAlpha" type="matrix" values="0 0 0 0 0 0 0 0 0 0 0 0 0 0 0 0 0 0 127 0" result="hardAlpha"/>
<feOffset dy="4"/>
<feGaussianBlur stdDeviation="2"/>
<feComposite in2="hardAlpha" operator="out"/>
<feColorMatrix type="matrix" values="0 0 0 0 0 0 0 0 0 0 0 0 0 0 0 0 0 0 0.25 0"/>
<feBlend mode="normal" in2="BackgroundImageFix" result="effect1_dropShadow"/>
<feBlend mode="normal" in="SourceGraphic" in2="effect1_dropShadow" result="shape"/>
</filter>
<filter id="filter2_d" x="5.06488" y="25" width="1879.52" height="1509.84" filterUnits="userSpaceOnUse" color-interpolation-filters="sRGB">
<feFlood flood-opacity="0" result="BackgroundImageFix"/>
<feColorMatrix in="SourceAlpha" type="matrix" values="0 0 0 0 0 0 0 0 0 0 0 0 0 0 0 0 0 0 127 0" result="hardAlpha"/>
<feOffset dy="4"/>
<feGaussianBlur stdDeviation="2"/>
<feComposite in2="hardAlpha" operator="out"/>
<feColorMatrix type="matrix" values="0 0 0 0 0 0 0 0 0 0 0 0 0 0 0 0 0 0 0.25 0"/>
<feBlend mode="normal" in2="BackgroundImageFix" result="effect1_dropShadow"/>
<feBlend mode="normal" in="SourceGraphic" in2="effect1_dropShadow" result="shape"/>
</filter>
<filter id="filter3_d" x="0.000183105" y="33" width="1773.59" height="1424.83" filterUnits="userSpaceOnUse" color-interpolation-filters="sRGB">
<feFlood flood-opacity="0" result="BackgroundImageFix"/>
<feColorMatrix in="SourceAlpha" type="matrix" values="0 0 0 0 0 0 0 0 0 0 0 0 0 0 0 0 0 0 127 0" result="hardAlpha"/>
<feOffset dy="4"/>
<feGaussianBlur stdDeviation="2"/>
<feComposite in2="hardAlpha" operator="out"/>
<feColorMatrix type="matrix" values="0 0 0 0 0 0 0 0 0 0 0 0 0 0 0 0 0 0 0.25 0"/>
<feBlend mode="normal" in2="BackgroundImageFix" result="effect1_dropShadow"/>
<feBlend mode="normal" in="SourceGraphic" in2="effect1_dropShadow" result="shape"/>
</filter>
<filter id="filter4_d" x="1.48993" y="42.9146" width="1667.65" height="1339.82" filterUnits="userSpaceOnUse" color-interpolation-filters="sRGB">
<feFlood flood-opacity="0" result="BackgroundImageFix"/>
<feColorMatrix in="SourceAlpha" type="matrix" values="0 0 0 0 0 0 0 0 0 0 0 0 0 0 0 0 0 0 127 0" result="hardAlpha"/>
<feOffset dy="4"/>
<feGaussianBlur stdDeviation="2"/>
<feComposite in2="hardAlpha" operator="out"/>
<feColorMatrix type="matrix" values="0 0 0 0 0 0 0 0 0 0 0 0 0 0 0 0 0 0 0.25 0"/>
<feBlend mode="normal" in2="BackgroundImageFix" result="effect1_dropShadow"/>
<feBlend mode="normal" in="SourceGraphic" in2="effect1_dropShadow" result="shape"/>
</filter>
<filter id="filter5_d" x="56.39" y="51.0364" width="1561.72" height="1254.81" filterUnits="userSpaceOnUse" color-interpolation-filters="sRGB">
<feFlood flood-opacity="0" result="BackgroundImageFix"/>
<feColorMatrix in="SourceAlpha" type="matrix" values="0 0 0 0 0 0 0 0 0 0 0 0 0 0 0 0 0 0 127 0" result="hardAlpha"/>
<feOffset dy="4"/>
<feGaussianBlur stdDeviation="2"/>
<feComposite in2="hardAlpha" operator="out"/>
<feColorMatrix type="matrix" values="0 0 0 0 0 0 0 0 0 0 0 0 0 0 0 0 0 0 0.25 0"/>
<feBlend mode="normal" in2="BackgroundImageFix" result="effect1_dropShadow"/>
<feBlend mode="normal" in="SourceGraphic" in2="effect1_dropShadow" result="shape"/>
</filter>
<filter id="filter6_d" x="111.29" y="59.1572" width="1455.78" height="1169.8" filterUnits="userSpaceOnUse" color-interpolation-filters="sRGB">
<feFlood flood-opacity="0" result="BackgroundImageFix"/>
<feColorMatrix in="SourceAlpha" type="matrix" values="0 0 0 0 0 0 0 0 0 0 0 0 0 0 0 0 0 0 127 0" result="hardAlpha"/>
<feOffset dy="4"/>
<feGaussianBlur stdDeviation="2"/>
<feComposite in2="hardAlpha" operator="out"/>
<feColorMatrix type="matrix" values="0 0 0 0 0 0 0 0 0 0 0 0 0 0 0 0 0 0 0.25 0"/>
<feBlend mode="normal" in2="BackgroundImageFix" result="effect1_dropShadow"/>
<feBlend mode="normal" in="SourceGraphic" in2="effect1_dropShadow" result="shape"/>
</filter>
<filter id="filter7_d" x="166.189" y="67.2791" width="1349.85" height="1084.79" filterUnits="userSpaceOnUse" color-interpolation-filters="sRGB">
<feFlood flood-opacity="0" result="BackgroundImageFix"/>
<feColorMatrix in="SourceAlpha" type="matrix" values="0 0 0 0 0 0 0 0 0 0 0 0 0 0 0 0 0 0 127 0" result="hardAlpha"/>
<feOffset dy="4"/>
<feGaussianBlur stdDeviation="2"/>
<feComposite in2="hardAlpha" operator="out"/>
<feColorMatrix type="matrix" values="0 0 0 0 0 0 0 0 0 0 0 0 0 0 0 0 0 0 0.25 0"/>
<feBlend mode="normal" in2="BackgroundImageFix" result="effect1_dropShadow"/>
<feBlend mode="normal" in="SourceGraphic" in2="effect1_dropShadow" result="shape"/>
</filter>
<filter id="filter8_d" x="221.09" y="75.4003" width="1243.91" height="999.779" filterUnits="userSpaceOnUse" color-interpolation-filters="sRGB">
<feFlood flood-opacity="0" result="BackgroundImageFix"/>
<feColorMatrix in="SourceAlpha" type="matrix" values="0 0 0 0 0 0 0 0 0 0 0 0 0 0 0 0 0 0 127 0" result="hardAlpha"/>
<feOffset dy="4"/>
<feGaussianBlur stdDeviation="2"/>
<feComposite in2="hardAlpha" operator="out"/>
<feColorMatrix type="matrix" values="0 0 0 0 0 0 0 0 0 0 0 0 0 0 0 0 0 0 0.25 0"/>
<feBlend mode="normal" in2="BackgroundImageFix" result="effect1_dropShadow"/>
<feBlend mode="normal" in="SourceGraphic" in2="effect1_dropShadow" result="shape"/>
</filter>
<filter id="filter9_d" x="275.99" y="83.5216" width="1137.98" height="914.769" filterUnits="userSpaceOnUse" color-interpolation-filters="sRGB">
<feFlood flood-opacity="0" result="BackgroundImageFix"/>
<feColorMatrix in="SourceAlpha" type="matrix" values="0 0 0 0 0 0 0 0 0 0 0 0 0 0 0 0 0 0 127 0" result="hardAlpha"/>
<feOffset dy="4"/>
<feGaussianBlur stdDeviation="2"/>
<feComposite in2="hardAlpha" operator="out"/>
<feColorMatrix type="matrix" values="0 0 0 0 0 0 0 0 0 0 0 0 0 0 0 0 0 0 0.25 0"/>
<feBlend mode="normal" in2="BackgroundImageFix" result="effect1_dropShadow"/>
<feBlend mode="normal" in="SourceGraphic" in2="effect1_dropShadow" result="shape"/>
</filter>
<filter id="filter10_d" x="330.889" y="91.6433" width="1032.04" height="829.759" filterUnits="userSpaceOnUse" color-interpolation-filters="sRGB">
<feFlood flood-opacity="0" result="BackgroundImageFix"/>
<feColorMatrix in="SourceAlpha" type="matrix" values="0 0 0 0 0 0 0 0 0 0 0 0 0 0 0 0 0 0 127 0" result="hardAlpha"/>
<feOffset dy="4"/>
<feGaussianBlur stdDeviation="2"/>
<feComposite in2="hardAlpha" operator="out"/>
<feColorMatrix type="matrix" values="0 0 0 0 0 0 0 0 0 0 0 0 0 0 0 0 0 0 0.25 0"/>
<feBlend mode="normal" in2="BackgroundImageFix" result="effect1_dropShadow"/>
<feBlend mode="normal" in="SourceGraphic" in2="effect1_dropShadow" result="shape"/>
</filter>
<filter id="filter11_d" x="385.79" y="99.7642" width="926.106" height="744.75" filterUnits="userSpaceOnUse" color-interpolation-filters="sRGB">
<feFlood flood-opacity="0" result="BackgroundImageFix"/>
<feColorMatrix in="SourceAlpha" type="matrix" values="0 0 0 0 0 0 0 0 0 0 0 0 0 0 0 0 0 0 127 0" result="hardAlpha"/>
<feOffset dy="4"/>
<feGaussianBlur stdDeviation="2"/>
<feComposite in2="hardAlpha" operator="out"/>
<feColorMatrix type="matrix" values="0 0 0 0 0 0 0 0 0 0 0 0 0 0 0 0 0 0 0.25 0"/>
<feBlend mode="normal" in2="BackgroundImageFix" result="effect1_dropShadow"/>
<feBlend mode="normal" in="SourceGraphic" in2="effect1_dropShadow" result="shape"/>
</filter>
<filter id="filter12_d" x="440.689" y="107.886" width="820.171" height="659.74" filterUnits="userSpaceOnUse" color-interpolation-filters="sRGB">
<feFlood flood-opacity="0" result="BackgroundImageFix"/>
<feColorMatrix in="SourceAlpha" type="matrix" values="0 0 0 0 0 0 0 0 0 0 0 0 0 0 0 0 0 0 127 0" result="hardAlpha"/>
<feOffset dy="4"/>
<feGaussianBlur stdDeviation="2"/>
<feComposite in2="hardAlpha" operator="out"/>
<feColorMatrix type="matrix" values="0 0 0 0 0 0 0 0 0 0 0 0 0 0 0 0 0 0 0.25 0"/>
<feBlend mode="normal" in2="BackgroundImageFix" result="effect1_dropShadow"/>
<feBlend mode="normal" in="SourceGraphic" in2="effect1_dropShadow" result="shape"/>
</filter>
</defs>
</svg>
